<?xml version="1.0" encoding="utf-8"?>
<!-- Generator: Adobe Illustrator 24.1.1, SVG Export Plug-In . SVG Version: 6.00 Build 0)  -->
<svg version="1.1" id="Layer_1" xmlns="http://www.w3.org/2000/svg" xmlns:xlink="http://www.w3.org/1999/xlink" x="0px" y="0px"
	 viewBox="0 0 500 500" style="enable-background:new 0 0 500 500;" xml:space="preserve">
<style type="text/css">
	.st0{fill:#5E2F74;}
	.st1{fill:#FFFFFF;}
</style>
<circle class="st0" cx="249.5" cy="256.5" r="225.5"/>
<g>
	<g>
		<path class="st1" d="M357.94,148.06c-27.28-27.28-63.55-42.3-102.12-42.3s-74.84,15.02-102.12,42.3s-42.3,63.55-42.3,102.12
			c0,24.44,6.19,48.45,17.93,69.72l-30.57,87.35l87.35-30.57c21.27,11.74,45.28,17.93,69.72,17.93c38.58,0,74.84-15.02,102.12-42.3
			c27.28-27.28,42.3-63.55,42.3-102.12S385.22,175.33,357.94,148.06z M255.82,376.92c-22.67,0-44.92-6.06-64.34-17.53l-3.54-2.09
			l-60.36,21.13l21.13-60.36l-2.09-3.54c-11.47-19.42-17.53-41.67-17.53-64.34c0-69.88,56.85-126.74,126.74-126.74
			s126.74,56.85,126.74,126.74C382.56,320.06,325.71,376.92,255.82,376.92z"/>
	</g>
</g>
<g>
	<g>
		<path class="st1" d="M327.72,290.82l-20.84-20.84c-6.89-6.9-18.11-6.9-25.01,0l-7.97,7.97c-19.36-10.5-35.35-26.49-45.85-45.85
			l7.97-7.97c3.34-3.34,5.18-7.78,5.18-12.5s-1.84-9.16-5.18-12.5l-20.84-20.84c-3.34-3.34-7.78-5.18-12.5-5.18
			c-4.72,0-9.16,1.84-12.5,5.18l-16.67,16.67c-9.41,9.41-9.85,25.65-1.25,45.73c7.52,17.54,21.28,36.83,38.76,54.31
			c17.48,17.48,36.76,31.24,54.31,38.76c9.57,4.1,18.27,6.15,25.77,6.15c8.24,0,15.04-2.47,19.96-7.39l16.67-16.67
			c3.34-3.34,5.18-7.78,5.18-12.5S331.06,294.16,327.72,290.82z M298.54,320c-3.72,3.72-14.03,2.74-26.26-2.5
			c-15.52-6.65-32.84-19.09-48.77-35.01c-15.92-15.92-28.36-33.24-35.01-48.77c-5.24-12.23-6.22-22.54-2.5-26.26l16.67-16.67
			l20.84,20.84l-16.91,16.91l2.67,5.63c12.97,27.38,35.19,49.59,62.56,62.56l5.63,2.67l16.91-16.91l20.84,20.84L298.54,320z"/>
	</g>
</g>
</svg>
