<?xml version="1.0" encoding="utf-8"?>
<!-- Generator: Adobe Illustrator 24.1.1, SVG Export Plug-In . SVG Version: 6.00 Build 0)  -->
<svg version="1.1" id="Layer_1" xmlns="http://www.w3.org/2000/svg" xmlns:xlink="http://www.w3.org/1999/xlink" x="0px" y="0px"
	 viewBox="0 0 500 500" style="enable-background:new 0 0 500 500;" xml:space="preserve">
<style type="text/css">
	.st0{fill:#5E2F74;}
	.st1{fill:#FFFFFF;}
</style>
<circle class="st0" cx="253.5" cy="250" r="225.5"/>
<g>
	<path class="st1" d="M291.1,100.7l-187,187l111.7,111.7l187-187L291.1,100.7z M241.3,342.4c-14-14-36.9-14-50.9,0l-3.4,3.4
		l-29.3-29.3l3.4-3.4c14-14,14-36.9,0-50.9l-3.4-3.4l104.5-104.5l3.4,3.4c7,7,16.2,10.5,25.5,10.5s18.4-3.5,25.5-10.5l3.4-3.4
		l29.3,29.3l-3.4,3.4c-14,14-14,36.9,0,50.9l3.4,3.4L244.7,345.7L241.3,342.4z M358.2,225.5c-7.2-7.2-7.2-19,0-26.2l3.4-3.4
		l16.5,16.5l-16.5,16.5L358.2,225.5z M307.6,141.9l-3.4,3.4c-7.2,7.2-19,7.2-26.2,0l-3.4-3.4l16.5-16.5L307.6,141.9z M145.4,271.1
		l3.4,3.4c7.2,7.2,7.2,19,0,26.2l-3.4,3.4l-16.5-16.5L145.4,271.1z M199.4,358.1l3.4-3.4c7.2-7.2,19-7.2,26.2,0l3.4,3.4l-16.5,16.5
		L199.4,358.1z"/>
	<path class="st1" d="M222.4,218.9c-17.2,17.2-17.2,45.1,0,62.2c8.6,8.6,19.8,12.9,31.1,12.9c11.3,0,22.5-4.3,31.1-12.9
		c17.2-17.2,17.2-45.1,0-62.2S239.5,201.7,222.4,218.9L222.4,218.9z M272.3,268.8c-10.3,10.3-27.2,10.3-37.5,0s-10.3-27.2,0-37.5
		c5.2-5.2,12-7.8,18.8-7.8c6.8,0,13.6,2.6,18.8,7.8C282.6,241.6,282.6,258.4,272.3,268.8L272.3,268.8z"/>
	<path class="st1" d="M190.9,300.2l12.4-12.4l12.4,12.4l-12.4,12.4L190.9,300.2z"/>
	<path class="st1" d="M291.3,199.8l12.4-12.4l12.4,12.4l-12.4,12.4L291.3,199.8z"/>
</g>
</svg>
