<?xml version="1.0" encoding="utf-8"?>
<!-- Generator: Adobe Illustrator 24.1.1, SVG Export Plug-In . SVG Version: 6.00 Build 0)  -->
<svg version="1.1" id="Layer_1" fill="FFFFFF" xmlns="http://www.w3.org/2000/svg" xmlns:xlink="http://www.w3.org/1999/xlink" x="0px" y="0px"
	 viewBox="0 0 500 500" style="enable-background:new 0 0 500 500;" xml:space="preserve">
<style type="text/css">
	.st0{fill:#5E2F74;}
</style>
<g>
	<path class="st0" d="M118.7,272.9l-20.6,20.5l20.5,20.5l4.2-4.2c9-9,9-23.7,0-32.7L118.7,272.9z"/>
	<path class="st0" d="M190.3,377l-4.2,4.2l20.5,20.5l20.5-20.5l-4.2-4.2C213.9,368,199.3,368,190.3,377z"/>
	<path class="st0" d="M316.7,116l4.2-4.2h0l-20.5-20.5l-20.5,20.5l4.2,4.2C293.1,125,307.7,125,316.7,116z"/>
	<path class="st0" d="M253.5,213.5c-8.5,0-16.9,3.2-23.4,9.7c-12.9,12.9-12.9,33.9,0,46.8c12.9,12.9,33.9,12.9,46.8,0
		s12.9-33.9,0-46.8C270.4,216.7,262,213.5,253.5,213.5z"/>
	<path class="st0" d="M253.5,21C129,21,28,122,28,246.5S129,472,253.5,472S479,371,479,246.5S378,21,253.5,21z M206.6,432.7
		L67.3,293.4L300.4,60.3l139.2,139.2L206.6,432.7z"/>
	<path class="st0" d="M388.3,179l-4.2,4.2c-9,9-9,23.7,0,32.7l4.2,4.2l20.5-20.6L388.3,179z"/>
	<path class="st0" d="M372.9,163.6l-36.5-36.5l-4.2,4.2c-8.8,8.8-20.3,13.1-31.7,13.1s-23-4.4-31.7-13.1l-4.2-4.2L134.2,257.5
		l4.2,4.2c17.5,17.5,17.5,46,0,63.5l-4.2,4.2l36.5,36.5l4.2-4.2c17.5-17.5,46-17.5,63.5,0v0l4.2,4.2l130.3-130.3l-4.2-4.2
		c-17.5-17.5-17.5-46,0-63.5L372.9,163.6z M190.9,324.5l-15.4-15.4l15.4-15.4l15.4,15.4L190.9,324.5z M292.3,285.3
		c-10.7,10.7-24.7,16-38.8,16s-28.1-5.3-38.8-16c-21.4-21.4-21.4-56.2,0-77.6v0c21.4-21.4,56.2-21.4,77.6,0
		C313.7,229.1,313.7,263.9,292.3,285.3z M316,199.3l-15.4-15.4l15.4-15.4l15.4,15.4L316,199.3z"/>
</g>
</svg>
