<?xml version="1.0" encoding="utf-8"?>
<!-- Generator: Adobe Illustrator 24.1.1, SVG Export Plug-In . SVG Version: 6.00 Build 0)  -->
<svg version="1.1" id="Layer_1" xmlns="http://www.w3.org/2000/svg" xmlns:xlink="http://www.w3.org/1999/xlink" x="0px" y="0px"
	 viewBox="0 0 500 500" style="enable-background:new 0 0 500 500;" xml:space="preserve">
<style type="text/css">
	.st0{fill:#5E2F74;}
	.st1{fill:#FFFFFF;}
</style>
<circle class="st0" cx="253.5" cy="246.5" r="225.5"/>
<g>
	<path class="st1" d="M300.41,60.35L67.35,293.41l139.24,139.24l233.06-233.06L300.41,60.35z M238.33,361.63
		c-17.5-17.5-45.98-17.5-63.48,0l-4.22,4.23l-36.48-36.48l4.23-4.22c17.5-17.5,17.5-45.98,0-63.48l-4.23-4.22l130.3-130.3l4.22,4.23
		c8.75,8.75,20.25,13.13,31.74,13.13c11.49,0,22.99-4.38,31.74-13.13l4.22-4.23l36.48,36.48l-4.23,4.22
		c-17.5,17.5-17.5,45.98,0,63.48l4.23,4.22l-130.3,130.3L238.33,361.63z M384.05,215.92c-9-9-9-23.65,0-32.66l4.23-4.22l20.55,20.55
		l-20.55,20.55L384.05,215.92z M320.96,111.73l-4.22,4.23c-9,9-23.65,9-32.66,0l-4.22-4.23l20.55-20.55L320.96,111.73z
		 M118.73,272.86l4.23,4.22c9,9,9,23.65,0,32.66l-4.23,4.22l-20.55-20.55L118.73,272.86z M186.04,381.27l4.22-4.23
		c9-9,23.65-9,32.66,0l4.22,4.23l-20.55,20.55L186.04,381.27z"/>
	<path class="st1" d="M214.71,207.71c-21.39,21.39-21.39,56.2,0,77.59c10.7,10.7,24.74,16.04,38.79,16.04s28.1-5.35,38.79-16.04
		c21.39-21.39,21.39-56.2,0-77.59C270.9,186.32,236.1,186.32,214.71,207.71L214.71,207.71z M276.88,269.88
		c-12.89,12.89-33.87,12.89-46.76,0c-12.89-12.89-12.89-33.87,0-46.76c6.45-6.45,14.91-9.67,23.38-9.67s16.93,3.22,23.38,9.67
		C289.77,236.01,289.77,256.99,276.88,269.88L276.88,269.88z"/>
	<path class="st1" d="M175.47,309.07l15.41-15.41l15.41,15.41l-15.41,15.41L175.47,309.07z"/>
	<path class="st1" d="M300.63,183.93l15.41-15.41l15.41,15.41l-15.41,15.41L300.63,183.93z"/>
</g>
</svg>
