<?xml version="1.0" encoding="utf-8"?>
<!-- Generator: Adobe Illustrator 24.1.1, SVG Export Plug-In . SVG Version: 6.00 Build 0)  -->
<svg version="1.1" id="Layer_1" xmlns="http://www.w3.org/2000/svg" xmlns:xlink="http://www.w3.org/1999/xlink" x="0px" y="0px"
	 viewBox="0 0 500 500" style="enable-background:new 0 0 500 500;" xml:space="preserve">
<style type="text/css">
	.st0{fill:#5E2F74;}
	.st1{fill:#FFFFFF;}
</style>
<circle class="st0" cx="260.38" cy="244.24" r="225.5"/>
<g>
	<path class="st1" d="M378.95,140.41h-8.85v-20.65c0-14.64-11.91-26.55-26.55-26.55s-26.55,11.91-26.55,26.55v7.25
		c0,9.17-6.16,17.33-14.98,19.85l-8.62,2.46v-0.07c0-4.89-3.96-8.85-8.85-8.85h-35.4c-4.89,0-8.85,3.96-8.85,8.85v39.53H135.9
		c-14.64,0-26.55,11.91-26.55,26.55v171.08c0,3.26,1.8,6.26,4.67,7.8c1.31,0.7,2.74,1.05,4.17,1.05c1.72,0,3.43-0.5,4.91-1.49
		l33.17-22.11h168.4c14.64,0,26.55-11.91,26.55-26.55V252.5h27.73c17.89,0,32.45-14.56,32.45-32.45v-47.2
		C411.4,154.96,396.84,140.41,378.95,140.41z M258.02,158.11h17.7v76.69h-17.7V158.11z M333.53,345.12c0,4.88-3.97,8.85-8.85,8.85
		H153.6c-1.75,0-3.45,0.52-4.91,1.49l-21.64,14.43V215.33c0-4.88,3.97-8.85,8.85-8.85h104.42v37.17c0,4.89,3.96,8.85,8.85,8.85h35.4
		c4.55,0,8.29-3.43,8.79-7.84c7.88,5.03,17.15,7.84,26.79,7.84h13.39V345.12z M393.7,220.05c0,8.13-6.62,14.75-14.75,14.75h-58.81
		c-10.76,0-20.81-5.43-26.73-14.3v-52.76l13.48-3.85c16.38-4.68,27.81-19.84,27.81-36.87v-7.25c0-4.88,3.97-8.85,8.85-8.85
		c4.88,0,8.85,3.97,8.85,8.85v29.5c0,4.89,3.96,8.85,8.85,8.85h17.7c8.13,0,14.75,6.62,14.75,14.75V220.05z"/>
	<path class="st1" d="M153.6,259.58h58.99c4.89,0,8.85-3.96,8.85-8.85c0-4.89-3.96-8.85-8.85-8.85H153.6
		c-4.89,0-8.85,3.96-8.85,8.85C144.75,255.61,148.71,259.58,153.6,259.58z"/>
	<path class="st1" d="M306.98,277.27H153.6c-4.89,0-8.85,3.96-8.85,8.85s3.96,8.85,8.85,8.85h153.38c4.89,0,8.85-3.96,8.85-8.85
		S311.87,277.27,306.98,277.27z"/>
	<path class="st1" d="M306.98,312.67H153.6c-4.89,0-8.85,3.96-8.85,8.85s3.96,8.85,8.85,8.85h153.38c4.89,0,8.85-3.96,8.85-8.85
		S311.87,312.67,306.98,312.67z"/>
</g>
</svg>
