<?xml version="1.0" encoding="utf-8"?>
<!-- Generator: Adobe Illustrator 24.1.1, SVG Export Plug-In . SVG Version: 6.00 Build 0)  -->
<svg version="1.1" id="Layer_1" xmlns="http://www.w3.org/2000/svg" xmlns:xlink="http://www.w3.org/1999/xlink" x="0px" y="0px"
	 viewBox="0 0 500 500" style="enable-background:new 0 0 500 500;" xml:space="preserve">
<style type="text/css">
	.st0{fill:#5E2F74;}
	.st1{fill:#FFFFFF;}
</style>
<circle class="st0" cx="270.13" cy="246.5" r="225.5"/>
<g>
	<g>
		<g>
			<path class="st1" d="M431.55,246.59C421.22,175.02,365,118.79,293.43,108.46V83.3h11.65c12.87,0,23.3-10.43,23.3-23.3l-93.2,0.7
				c-0.03-0.23-0.03-0.47,0-0.7h-23.3c0,12.87,10.43,23.3,23.3,23.3h11.65v25.16c-89.15,12.87-150.99,95.57-138.12,184.72
				s95.57,150.99,184.72,138.12C382.58,418.44,444.42,335.74,431.55,246.59z M270.13,409.49c-77.21,0-139.8-62.59-139.8-139.8
				s62.59-139.8,139.8-139.8s139.8,62.59,139.8,139.8S347.34,409.49,270.13,409.49z"/>
			<path class="st1" d="M270.13,153.2c-64.34,0-116.5,52.16-116.5,116.5s52.16,116.5,116.5,116.5s116.5-52.16,116.5-116.5
				S334.47,153.2,270.13,153.2z M270.13,362.89c-51.47,0-93.2-41.73-93.2-93.2s41.73-93.2,93.2-93.2s93.2,41.73,93.2,93.2
				S321.6,362.89,270.13,362.89z"/>
			<path class="st1" d="M281.78,211.44h-23.3v58.25c-0.02,3.1,1.2,6.07,3.38,8.27l34.95,34.95l16.43-16.43l-31.45-31.57V211.44z"/>
		</g>
	</g>
</g>
</svg>
