<?xml version="1.0" encoding="utf-8"?>
<!-- Generator: Adobe Illustrator 24.1.1, SVG Export Plug-In . SVG Version: 6.00 Build 0)  -->
<svg version="1.1" id="Layer_1" xmlns="http://www.w3.org/2000/svg" xmlns:xlink="http://www.w3.org/1999/xlink" x="0px" y="0px"
	 viewBox="0 0 682 682" style="enable-background:new 0 0 682 682;" xml:space="preserve">
<style type="text/css">
	.st0{fill:#FFFFFF;}
</style>
<path class="st0" d="M109.4,105.9c-43.8,0-72.4,27.2-72.4,63c0,35,27.7,62.9,70.7,62.9h0.8c44.7,0,72.4-28,72.4-62.9
	C180.2,133.1,153.2,105.9,109.4,105.9z"/>
<path class="st0" d="M44.6,281.5h128.1v364.3H44.6V281.5z"/>
<path class="st0" d="M487,272.9c-69,0-115.4,61.4-115.4,61.4v-52.8H243.5v364.3h128V442.3c0-10.9,0.8-21.7,4.2-29.6
	c9.2-21.7,30.4-44.3,65.7-44.3c46.3,0,64.8,33.4,64.8,82.3v194.9h128V436.9C634.4,325,571.1,272.9,487,272.9z"/>
</svg>
