<svg version="1.1" id="Layer_1" xmlns="http://www.w3.org/2000/svg" x="0" y="0" viewBox="0 0 500 500" xml:space="preserve"><style>.st1{fill:#fff}</style><circle cx="253.5" cy="246.5" r="225.5" fill="#5e2f74"/><path class="st1" d="M300.41 60.35L67.35 293.41l139.24 139.24 233.06-233.06L300.41 60.35zm-62.08 301.28c-17.5-17.5-45.98-17.5-63.48 0l-4.22 4.23-36.48-36.48 4.23-4.22c17.5-17.5 17.5-45.98 0-63.48l-4.23-4.22 130.3-130.3 4.22 4.23c8.75 8.75 20.25 13.13 31.74 13.13 11.49 0 22.99-4.38 31.74-13.13l4.22-4.23 36.48 36.48-4.23 4.22c-17.5 17.5-17.5 45.98 0 63.48l4.23 4.22-130.3 130.3-4.22-4.23zm145.72-145.71c-9-9-9-23.65 0-32.66l4.23-4.22 20.55 20.55-20.55 20.55-4.23-4.22zm-63.09-104.19l-4.22 4.23c-9 9-23.65 9-32.66 0l-4.22-4.23 20.55-20.55 20.55 20.55zM118.73 272.86l4.23 4.22c9 9 9 23.65 0 32.66l-4.23 4.22-20.55-20.55 20.55-20.55zm67.31 108.41l4.22-4.23c9-9 23.65-9 32.66 0l4.22 4.23-20.55 20.55-20.55-20.55z"/><path class="st1" d="M214.71 207.71c-21.39 21.39-21.39 56.2 0 77.59 10.7 10.7 24.74 16.04 38.79 16.04s28.1-5.35 38.79-16.04c21.39-21.39 21.39-56.2 0-77.59s-56.19-21.39-77.58 0zm62.17 62.17c-12.89 12.89-33.87 12.89-46.76 0s-12.89-33.87 0-46.76c6.45-6.45 14.91-9.67 23.38-9.67s16.93 3.22 23.38 9.67c12.89 12.89 12.89 33.87 0 46.76zM175.47 309.07l15.41-15.41 15.41 15.41-15.41 15.41-15.41-15.41zM300.63 183.93l15.41-15.41 15.41 15.41-15.41 15.41-15.41-15.41z"/></svg>